<?xml version="1.0" encoding="UTF-8" standalone="no"?>
<!DOCTYPE svg PUBLIC "-//W3C//DTD SVG 1.1//EN"
 "http://www.w3.org/Graphics/SVG/1.1/DTD/svg11.dtd">
<!-- Generated by graphviz version 12.2.1 (20241206.2353)
 -->
<!-- Pages: 1 -->
<svg width="1523pt" height="1382pt"
 viewBox="0.00 0.00 1523.14 1381.58" xmlns="http://www.w3.org/2000/svg" xmlns:xlink="http://www.w3.org/1999/xlink">
<g id="graph0" class="graph" transform="scale(1 1) rotate(0) translate(4 1377.58)">
<polygon fill="white" stroke="none" points="-4,4 -4,-1377.58 1519.14,-1377.58 1519.14,4 -4,4"/>
<!-- AppName&#45;97 -->
<g id="node1" class="node">
<title>AppName&#45;97</title>
<ellipse fill="none" stroke="black" cx="1021.81" cy="-326.22" rx="61.59" ry="18"/>
<text text-anchor="middle" x="1021.81" y="-321.17" font-family="Times,serif" font-size="14.00">AppName&#45;97</text>
</g>
<!-- AppName&#45;99 -->
<g id="node2" class="node">
<title>AppName&#45;99</title>
<ellipse fill="none" stroke="black" cx="1216.98" cy="-326.22" rx="61.59" ry="18"/>
<text text-anchor="middle" x="1216.98" y="-321.17" font-family="Times,serif" font-size="14.00">AppName&#45;99</text>
</g>
<!-- AppName&#45;97&#45;&gt;AppName&#45;99 -->
<g id="edge1" class="edge">
<title>AppName&#45;97&#45;&gt;AppName&#45;99</title>
<path fill="none" stroke="black" stroke-width="2" d="M1095.25,-326.22C1111.12,-326.22 1127.9,-326.22 1143.76,-326.22"/>
<polygon fill="black" stroke="black" stroke-width="2" points="1096.86,-322.72 1086.86,-326.22 1096.86,-329.72 1096.86,-322.72"/>
<polygon fill="black" stroke="black" stroke-width="2" points="1142.09,-329.72 1152.09,-326.22 1142.09,-322.72 1142.09,-329.72"/>
<text text-anchor="middle" x="1129.82" y="-312.92" font-family="Times,serif" font-size="14.00">without</text>
</g>
<!-- AppName&#45;8 -->
<g id="node3" class="node">
<title>AppName&#45;8</title>
<ellipse fill="none" stroke="black" cx="826.63" cy="-326.22" rx="56.98" ry="18"/>
<text text-anchor="middle" x="826.63" y="-321.17" font-family="Times,serif" font-size="14.00">AppName&#45;8</text>
</g>
<!-- AppName&#45;97&#45;&gt;AppName&#45;8 -->
<g id="edge2" class="edge">
<title>AppName&#45;97&#45;&gt;AppName&#45;8</title>
<path fill="none" stroke="black" d="M959.78,-326.22C939.25,-326.22 916.29,-326.22 895.29,-326.22"/>
<polygon fill="black" stroke="black" points="895.37,-322.72 885.37,-326.22 895.37,-329.72 895.37,-322.72"/>
<text text-anchor="middle" x="912.54" y="-329.42" font-family="Times,serif" font-size="14.00">space</text>
</g>
<!-- AppName&#45;57 -->
<g id="node4" class="node">
<title>AppName&#45;57</title>
<ellipse fill="none" stroke="black" cx="633.81" cy="-502.22" rx="61.59" ry="18"/>
<text text-anchor="middle" x="633.81" y="-497.17" font-family="Times,serif" font-size="14.00">AppName&#45;57</text>
</g>
<!-- AppName&#45;98 -->
<g id="node5" class="node">
<title>AppName&#45;98</title>
<ellipse fill="none" stroke="black" cx="1121.74" cy="-502.22" rx="61.59" ry="18"/>
<text text-anchor="middle" x="1121.74" y="-497.17" font-family="Times,serif" font-size="14.00">AppName&#45;98</text>
</g>
<!-- AppName&#45;57&#45;&gt;AppName&#45;98 -->
<g id="edge3" class="edge">
<title>AppName&#45;57&#45;&gt;AppName&#45;98</title>
<path fill="none" stroke="black" d="M695.6,-502.22C785.55,-502.22 952.24,-502.22 1048.32,-502.22"/>
<polygon fill="black" stroke="black" points="1048.17,-505.72 1058.17,-502.22 1048.17,-498.72 1048.17,-505.72"/>
<text text-anchor="middle" x="841.96" y="-505.42" font-family="Times,serif" font-size="14.00">technology</text>
</g>
<!-- AppName&#45;69 -->
<g id="node6" class="node">
<title>AppName&#45;69</title>
<ellipse fill="none" stroke="black" cx="504.58" cy="-648.49" rx="61.59" ry="18"/>
<text text-anchor="middle" x="504.58" y="-643.44" font-family="Times,serif" font-size="14.00">AppName&#45;69</text>
</g>
<!-- AppName&#45;57&#45;&gt;AppName&#45;69 -->
<g id="edge4" class="edge">
<title>AppName&#45;57&#45;&gt;AppName&#45;69</title>
<path fill="none" stroke="brown" d="M618.22,-519.86C595.71,-545.34 553.95,-592.61 527.8,-622.21"/>
<polygon fill="brown" stroke="brown" points="525.23,-619.83 521.23,-629.64 530.47,-624.47 525.23,-619.83"/>
<text text-anchor="middle" x="561.76" y="-574.23" font-family="Times,serif" font-size="14.00">sign</text>
</g>
<!-- AppName&#45;96 -->
<g id="node7" class="node">
<title>AppName&#45;96</title>
<ellipse fill="none" stroke="black" cx="573.65" cy="-18" rx="61.59" ry="18"/>
<text text-anchor="middle" x="573.65" y="-12.95" font-family="Times,serif" font-size="14.00">AppName&#45;96</text>
</g>
<!-- AppName&#45;57&#45;&gt;AppName&#45;96 -->
<g id="edge5" class="edge">
<title>AppName&#45;57&#45;&gt;AppName&#45;96</title>
<path fill="none" stroke="purple" stroke-width="2" d="M630.25,-473.59C619.58,-387.7 587.91,-132.75 577.22,-46.72"/>
<polygon fill="purple" stroke="purple" stroke-width="2" points="630.21,-473.24 626.97,-483.72 630.91,-478.86 631.36,-482.5 631.36,-482.5 631.36,-482.5 630.91,-478.86 635.91,-482.61 630.21,-473.24"/>
<polygon fill="purple" stroke="purple" stroke-width="2" points="577.25,-47 580.49,-36.52 576.56,-41.37 576.1,-37.74 576.1,-37.74 576.1,-37.74 576.56,-41.37 571.56,-37.63 577.25,-47"/>
<text text-anchor="middle" x="582.36" y="-263.36" font-family="Times,serif" font-size="14.00">strategy</text>
</g>
<!-- AppName&#45;85 -->
<g id="node8" class="node">
<title>AppName&#45;85</title>
<ellipse fill="none" stroke="black" cx="246.14" cy="-941.02" rx="61.59" ry="18"/>
<text text-anchor="middle" x="246.14" y="-935.97" font-family="Times,serif" font-size="14.00">AppName&#45;85</text>
</g>
<!-- AppName&#45;85&#45;&gt;AppName&#45;69 -->
<g id="edge12" class="edge">
<title>AppName&#45;85&#45;&gt;AppName&#45;69</title>
<path fill="none" stroke="red" stroke-width="2" d="M268.67,-915.52C317.69,-860.03 433.54,-728.9 482.32,-673.69"/>
<polygon fill="red" stroke="red" stroke-width="2" points="265.58,-925.06 259.58,-919.77 264.88,-913.77 270.87,-919.07 265.58,-925.06"/>
<polyline fill="none" stroke="red" stroke-width="2" points="267.88,-916.42 269.2,-914.92"/>
<polygon fill="red" stroke="red" stroke-width="2" points="485.35,-664.21 491.35,-669.51 486.05,-675.5 480.06,-670.21 485.35,-664.21"/>
<polyline fill="none" stroke="red" stroke-width="2" points="483.05,-672.86 481.73,-674.35"/>
<text text-anchor="middle" x="364.99" y="-797.8" font-family="Times,serif" font-size="14.00">fear</text>
</g>
<!-- AppName&#45;1 -->
<g id="node9" class="node">
<title>AppName&#45;1</title>
<ellipse fill="none" stroke="black" cx="430.69" cy="-877.51" rx="56.98" ry="18"/>
<text text-anchor="middle" x="430.69" y="-872.46" font-family="Times,serif" font-size="14.00">AppName&#45;1</text>
</g>
<!-- AppName&#45;85&#45;&gt;AppName&#45;1 -->
<g id="edge6" class="edge">
<title>AppName&#45;85&#45;&gt;AppName&#45;1</title>
<path fill="none" stroke="grey" d="M286.64,-927.09C314.42,-917.52 351.46,-904.78 381.03,-894.6"/>
<polygon fill="grey" stroke="grey" points="390.4,-891.38 382.41,-898.89 386.82,-892.61 380.94,-894.63 380.94,-894.63 380.94,-894.63 386.82,-892.61 379.48,-890.38 390.4,-891.38"/>
<text text-anchor="middle" x="312.83" y="-897.54" font-family="Times,serif" font-size="14.00">through</text>
</g>
<!-- AppName&#45;82 -->
<g id="node10" class="node">
<title>AppName&#45;82</title>
<ellipse fill="none" stroke="black" cx="395.42" cy="-1066.76" rx="61.59" ry="18"/>
<text text-anchor="middle" x="395.42" y="-1061.71" font-family="Times,serif" font-size="14.00">AppName&#45;82</text>
</g>
<!-- AppName&#45;85&#45;&gt;AppName&#45;82 -->
<g id="edge7" class="edge">
<title>AppName&#45;85&#45;&gt;AppName&#45;82</title>
<path fill="none" stroke="brown" stroke-width="2" d="M275.14,-965.45C301.32,-987.5 339.66,-1019.79 365.97,-1041.96"/>
<polygon fill="brown" stroke="brown" stroke-width="2" points="278.8,-963.96 268.9,-960.19 274.29,-969.31 278.8,-963.96"/>
<polygon fill="brown" stroke="brown" stroke-width="2" points="362.52,-1043.63 372.43,-1047.39 367.03,-1038.28 362.52,-1043.63"/>
<text text-anchor="middle" x="298.81" y="-1006.91" font-family="Times,serif" font-size="14.00">difficult</text>
</g>
<!-- AppName&#45;17 -->
<g id="node11" class="node">
<title>AppName&#45;17</title>
<ellipse fill="none" stroke="black" cx="210.38" cy="-1132.9" rx="61.59" ry="18"/>
<text text-anchor="middle" x="210.38" y="-1127.85" font-family="Times,serif" font-size="14.00">AppName&#45;17</text>
</g>
<!-- AppName&#45;85&#45;&gt;AppName&#45;17 -->
<g id="edge8" class="edge">
<title>AppName&#45;85&#45;&gt;AppName&#45;17</title>
<path fill="none" stroke="black" d="M242.71,-959.42C236.5,-992.73 223.35,-1063.28 215.88,-1103.39"/>
<polygon fill="black" stroke="black" points="212.47,-1102.59 214.07,-1113.07 219.35,-1103.88 212.47,-1102.59"/>
<text text-anchor="middle" x="196.29" y="-1034.61" font-family="Times,serif" font-size="14.00">professional</text>
</g>
<!-- AppName&#45;36 -->
<g id="node12" class="node">
<title>AppName&#45;36</title>
<ellipse fill="none" stroke="black" cx="61.59" cy="-1004.54" rx="61.59" ry="18"/>
<text text-anchor="middle" x="61.59" y="-999.49" font-family="Times,serif" font-size="14.00">AppName&#45;36</text>
</g>
<!-- AppName&#45;85&#45;&gt;AppName&#45;36 -->
<g id="edge9" class="edge">
<title>AppName&#45;85&#45;&gt;AppName&#45;36</title>
<path fill="none" stroke="orange" d="M205.64,-954.96C176.31,-965.06 136.67,-978.7 106.39,-989.12"/>
<polygon fill="orange" stroke="orange" points="104.57,-995.04 101.31,-985.58 103.2,-984.93 106.46,-994.39 104.57,-995.04"/>
<polyline fill="none" stroke="orange" points="101.99,-990.63 106.72,-989.01"/>
<text text-anchor="middle" x="147.76" y="-975.24" font-family="Times,serif" font-size="14.00">lay</text>
</g>
<!-- AppName&#45;88 -->
<g id="node13" class="node">
<title>AppName&#45;88</title>
<ellipse fill="none" stroke="black" cx="99.87" cy="-811.8" rx="61.59" ry="18"/>
<text text-anchor="middle" x="99.87" y="-806.75" font-family="Times,serif" font-size="14.00">AppName&#45;88</text>
</g>
<!-- AppName&#45;85&#45;&gt;AppName&#45;88 -->
<g id="edge10" class="edge">
<title>AppName&#45;85&#45;&gt;AppName&#45;88</title>
<path fill="none" stroke="grey" d="M226.41,-923.6C200.86,-901.02 156.19,-861.56 127.33,-836.06"/>
<polygon fill="grey" stroke="grey" points="120.2,-829.76 130.67,-833.01 123.03,-832.26 127.69,-836.38 127.69,-836.38 127.69,-836.38 123.03,-832.26 124.71,-839.75 120.2,-829.76"/>
<text text-anchor="middle" x="154" y="-883.03" font-family="Times,serif" font-size="14.00">improve</text>
</g>
<!-- AppName&#45;31 -->
<g id="node14" class="node">
<title>AppName&#45;31</title>
<ellipse fill="none" stroke="black" cx="286.42" cy="-750.05" rx="61.59" ry="18"/>
<text text-anchor="middle" x="286.42" y="-745" font-family="Times,serif" font-size="14.00">AppName&#45;31</text>
</g>
<!-- AppName&#45;85&#45;&gt;AppName&#45;31 -->
<g id="edge11" class="edge">
<title>AppName&#45;85&#45;&gt;AppName&#45;31</title>
<path fill="none" stroke="orange" d="M250,-922.71C257.4,-887.64 273.55,-811.06 281.62,-772.78"/>
<polygon fill="orange" stroke="orange" points="277.47,-768.25 287.25,-770.32 286.84,-772.27 277.06,-770.21 277.47,-768.25"/>
<polyline fill="none" stroke="orange" points="282.57,-768.31 281.54,-773.2"/>
<text text-anchor="middle" x="253.81" y="-850.95" font-family="Times,serif" font-size="14.00">with</text>
</g>
<!-- AppName&#45;90 -->
<g id="node15" class="node">
<title>AppName&#45;90</title>
<ellipse fill="none" stroke="black" cx="677.46" cy="-819.22" rx="61.59" ry="18"/>
<text text-anchor="middle" x="677.46" y="-814.17" font-family="Times,serif" font-size="14.00">AppName&#45;90</text>
</g>
<!-- AppName&#45;61 -->
<g id="node16" class="node">
<title>AppName&#45;61</title>
<ellipse fill="none" stroke="black" cx="872.63" cy="-819.22" rx="61.59" ry="18"/>
<text text-anchor="middle" x="872.63" y="-814.17" font-family="Times,serif" font-size="14.00">AppName&#45;61</text>
</g>
<!-- AppName&#45;90&#45;&gt;AppName&#45;61 -->
<g id="edge13" class="edge">
<title>AppName&#45;90&#45;&gt;AppName&#45;61</title>
<path fill="none" stroke="purple" stroke-width="2" d="M749.8,-819.22C766.39,-819.22 784.03,-819.22 800.6,-819.22"/>
<polygon fill="purple" stroke="purple" stroke-width="2" points="750.15,-819.22 740.15,-814.72 744.48,-819.22 740.82,-819.22 740.82,-819.22 740.82,-819.22 744.48,-819.22 740.15,-823.72 750.15,-819.22"/>
<polygon fill="purple" stroke="purple" stroke-width="2" points="800.1,-819.22 810.1,-823.72 805.77,-819.22 809.43,-819.22 809.43,-819.22 809.43,-819.22 805.77,-819.22 810.1,-814.72 800.1,-819.22"/>
<text text-anchor="middle" x="760.58" y="-822.42" font-family="Times,serif" font-size="14.00">focus</text>
</g>
<!-- AppName&#45;94 -->
<g id="node17" class="node">
<title>AppName&#45;94</title>
<ellipse fill="none" stroke="black" cx="1262.98" cy="-819.22" rx="61.59" ry="18"/>
<text text-anchor="middle" x="1262.98" y="-814.17" font-family="Times,serif" font-size="14.00">AppName&#45;94</text>
</g>
<!-- AppName&#45;94&#45;&gt;AppName&#45;61 -->
<g id="edge17" class="edge">
<title>AppName&#45;94&#45;&gt;AppName&#45;61</title>
<path fill="none" stroke="orange" stroke-width="2" d="M1196.36,-819.22C1124.56,-819.22 1010.96,-819.22 939.18,-819.22"/>
<polygon fill="orange" stroke="orange" stroke-width="2" points="1200.13,-814.22 1200.13,-824.22 1198.13,-824.22 1198.13,-814.22 1200.13,-814.22"/>
<polyline fill="none" stroke="orange" stroke-width="2" points="1201.13,-819.22 1196.13,-819.22"/>
<polygon fill="orange" stroke="orange" stroke-width="2" points="935.52,-824.22 935.52,-814.22 937.52,-814.22 937.52,-824.22 935.52,-824.22"/>
<polyline fill="none" stroke="orange" stroke-width="2" points="934.52,-819.22 939.52,-819.22"/>
<text text-anchor="middle" x="1045.27" y="-822.42" font-family="Times,serif" font-size="14.00">building</text>
</g>
<!-- AppName&#45;66 -->
<g id="node18" class="node">
<title>AppName&#45;66</title>
<ellipse fill="none" stroke="black" cx="1105.63" cy="-703.75" rx="61.59" ry="18"/>
<text text-anchor="middle" x="1105.63" y="-698.7" font-family="Times,serif" font-size="14.00">AppName&#45;66</text>
</g>
<!-- AppName&#45;94&#45;&gt;AppName&#45;66 -->
<g id="edge14" class="edge">
<title>AppName&#45;94&#45;&gt;AppName&#45;66</title>
<path fill="none" stroke="purple" stroke-width="2" d="M1231.64,-796.22C1204.2,-776.08 1164.52,-746.96 1137.05,-726.81"/>
<polygon fill="purple" stroke="purple" stroke-width="2" points="1231.16,-795.87 1236.56,-805.41 1235.73,-799.22 1238.68,-801.39 1238.68,-801.39 1238.68,-801.39 1235.73,-799.22 1241.89,-798.15 1231.16,-795.87"/>
<polygon fill="purple" stroke="purple" stroke-width="2" points="1137.54,-727.17 1132.14,-717.63 1132.97,-723.82 1130.02,-721.65 1130.02,-721.65 1130.02,-721.65 1132.97,-723.82 1126.82,-724.88 1137.54,-727.17"/>
<text text-anchor="middle" x="1170.84" y="-764.71" font-family="Times,serif" font-size="14.00">draw</text>
</g>
<!-- AppName&#45;75 -->
<g id="node19" class="node">
<title>AppName&#45;75</title>
<ellipse fill="none" stroke="black" cx="1325.92" cy="-634.47" rx="61.59" ry="18"/>
<text text-anchor="middle" x="1325.92" y="-629.42" font-family="Times,serif" font-size="14.00">AppName&#45;75</text>
</g>
<!-- AppName&#45;94&#45;&gt;AppName&#45;75 -->
<g id="edge15" class="edge">
<title>AppName&#45;94&#45;&gt;AppName&#45;75</title>
<path fill="none" stroke="orange" stroke-width="2" d="M1270.72,-796.49C1282.8,-761.03 1306,-692.93 1318.11,-657.37"/>
<polygon fill="orange" stroke="orange" stroke-width="2" points="1274.3,-801.49 1264.84,-798.27 1265.48,-796.37 1274.95,-799.6 1274.3,-801.49"/>
<polyline fill="none" stroke="orange" stroke-width="2" points="1269.25,-800.83 1270.86,-796.09"/>
<polygon fill="orange" stroke="orange" stroke-width="2" points="1314.62,-652.12 1324.09,-655.34 1323.44,-657.23 1313.98,-654.01 1314.62,-652.12"/>
<polyline fill="none" stroke="orange" stroke-width="2" points="1319.68,-652.78 1318.07,-657.51"/>
<text text-anchor="middle" x="1272.29" y="-730.13" font-family="Times,serif" font-size="14.00">perform</text>
</g>
<!-- AppName&#45;2 -->
<g id="node20" class="node">
<title>AppName&#45;2</title>
<ellipse fill="none" stroke="black" cx="1458.16" cy="-819.22" rx="56.98" ry="18"/>
<text text-anchor="middle" x="1458.16" y="-814.17" font-family="Times,serif" font-size="14.00">AppName&#45;2</text>
</g>
<!-- AppName&#45;94&#45;&gt;AppName&#45;2 -->
<g id="edge16" class="edge">
<title>AppName&#45;94&#45;&gt;AppName&#45;2</title>
<path fill="none" stroke="black" d="M1325,-819.22C1345.54,-819.22 1368.5,-819.22 1389.5,-819.22"/>
<polygon fill="black" stroke="black" points="1389.42,-822.72 1399.42,-819.22 1389.42,-815.72 1389.42,-822.72"/>
<text text-anchor="middle" x="1347.13" y="-822.42" font-family="Times,serif" font-size="14.00">guy</text>
</g>
<!-- AppName&#45;26 -->
<g id="node21" class="node">
<title>AppName&#45;26</title>
<ellipse fill="none" stroke="black" cx="1325.92" cy="-1003.97" rx="61.59" ry="18"/>
<text text-anchor="middle" x="1325.92" y="-998.92" font-family="Times,serif" font-size="14.00">AppName&#45;26</text>
</g>
<!-- AppName&#45;94&#45;&gt;AppName&#45;26 -->
<g id="edge18" class="edge">
<title>AppName&#45;94&#45;&gt;AppName&#45;26</title>
<path fill="none" stroke="black" stroke-width="2" d="M1272.82,-848.1C1284.59,-882.66 1304.19,-940.18 1315.99,-974.84"/>
<polygon fill="black" stroke="black" stroke-width="2" points="1276.76,-848.81 1270.22,-840.47 1270.13,-851.07 1276.76,-848.81"/>
<polygon fill="black" stroke="black" stroke-width="2" points="1312.16,-974.45 1318.7,-982.78 1318.79,-972.19 1312.16,-974.45"/>
<text text-anchor="middle" x="1274.16" y="-914.67" font-family="Times,serif" font-size="14.00">address</text>
</g>
<!-- AppName&#45;10 -->
<g id="node22" class="node">
<title>AppName&#45;10</title>
<ellipse fill="none" stroke="black" cx="1105.63" cy="-934.68" rx="61.59" ry="18"/>
<text text-anchor="middle" x="1105.63" y="-929.63" font-family="Times,serif" font-size="14.00">AppName&#45;10</text>
</g>
<!-- AppName&#45;94&#45;&gt;AppName&#45;10 -->
<g id="edge19" class="edge">
<title>AppName&#45;94&#45;&gt;AppName&#45;10</title>
<path fill="none" stroke="black" d="M1239.76,-836.25C1212.8,-856.04 1168.16,-888.79 1137.85,-911.03"/>
<polygon fill="black" stroke="black" points="1136.15,-907.94 1130.16,-916.68 1140.29,-913.58 1136.15,-907.94"/>
<text text-anchor="middle" x="1178.31" y="-876.84" font-family="Times,serif" font-size="14.00">into</text>
</g>
<!-- Mechanism -->
<g id="node23" class="node">
<title>Mechanism</title>
<polygon fill="none" stroke="black" points="950.06,-1196.22 869.56,-1196.22 869.56,-1160.22 950.06,-1160.22 950.06,-1196.22"/>
<text text-anchor="middle" x="909.81" y="-1173.17" font-family="Times,serif" font-size="14.00">Mechanism</text>
</g>
<!-- API -->
<g id="node24" class="node">
<title>API</title>
<ellipse fill="none" stroke="black" cx="1087.23" cy="-1178.22" rx="27" ry="18"/>
<text text-anchor="middle" x="1087.23" y="-1173.17" font-family="Times,serif" font-size="14.00">API</text>
</g>
<!-- Mechanism&#45;&gt;API -->
<g id="edge20" class="edge">
<title>Mechanism&#45;&gt;API</title>
<path fill="none" stroke="green" d="M950.51,-1178.22C979.48,-1178.22 1018.22,-1178.22 1047.07,-1178.22"/>
<polygon fill="green" stroke="green" points="1047.05,-1178.22 1053.05,-1174.22 1059.05,-1178.22 1053.05,-1182.22 1047.05,-1178.22"/>
<text text-anchor="middle" x="998.79" y="-1164.92" font-family="Times,serif" font-size="14.00">Green Diamond</text>
</g>
<!-- FTP -->
<g id="node25" class="node">
<title>FTP</title>
<ellipse fill="none" stroke="black" cx="1042.85" cy="-1295.6" rx="27" ry="18"/>
<text text-anchor="middle" x="1042.85" y="-1290.55" font-family="Times,serif" font-size="14.00">FTP</text>
</g>
<!-- Mechanism&#45;&gt;FTP -->
<g id="edge21" class="edge">
<title>Mechanism&#45;&gt;FTP</title>
<path fill="none" stroke="red" d="M930.59,-1196.56C954.47,-1217.62 993.57,-1252.12 1018.75,-1274.34"/>
<polygon fill="red" stroke="red" points="1028.67,-1277.76 1023.38,-1283.75 1017.38,-1278.46 1022.67,-1272.46 1028.67,-1277.76"/>
<polyline fill="none" stroke="red" points="1020.03,-1275.46 1018.53,-1274.14"/>
<text text-anchor="middle" x="950.67" y="-1238.65" font-family="Times,serif" font-size="14.00">Red Box</text>
</g>
<!-- Fileshare -->
<g id="node26" class="node">
<title>Fileshare</title>
<ellipse fill="none" stroke="black" cx="914.27" cy="-1355.58" rx="44.7" ry="18"/>
<text text-anchor="middle" x="914.27" y="-1350.53" font-family="Times,serif" font-size="14.00">Fileshare</text>
</g>
<!-- Mechanism&#45;&gt;Fileshare -->
<g id="edge22" class="edge">
<title>Mechanism&#45;&gt;Fileshare</title>
<path fill="none" stroke="blue" d="M910.27,-1196.53C911.06,-1227.86 912.67,-1291.9 913.58,-1328.44"/>
<ellipse fill="none" stroke="blue" cx="913.69" cy="-1332.6" rx="4" ry="4"/>
<text text-anchor="middle" x="880.8" y="-1265.68" font-family="Times,serif" font-size="14.00">Blue Circle</text>
</g>
<!-- Emails -->
<g id="node27" class="node">
<title>Emails</title>
<ellipse fill="none" stroke="black" cx="776.04" cy="-1294.77" rx="37.02" ry="18"/>
<text text-anchor="middle" x="776.04" y="-1289.72" font-family="Times,serif" font-size="14.00">Emails</text>
</g>
<!-- Mechanism&#45;&gt;Emails -->
<g id="edge23" class="edge">
<title>Mechanism&#45;&gt;Emails</title>
<path fill="none" stroke="grey" d="M888.61,-1196.68C865.28,-1217.01 827.75,-1249.71 802.51,-1271.71"/>
<polygon fill="grey" stroke="grey" points="795.05,-1278.2 799.64,-1268.24 797.91,-1275.72 802.59,-1271.63 802.59,-1271.63 802.59,-1271.63 797.91,-1275.72 805.55,-1275.03 795.05,-1278.2"/>
<text text-anchor="middle" x="820.43" y="-1237.4" font-family="Times,serif" font-size="14.00">Grey Vee</text>
</g>
<!-- Autosys -->
<g id="node28" class="node">
<title>Autosys</title>
<ellipse fill="none" stroke="black" cx="734.18" cy="-1153.06" rx="41.12" ry="18"/>
<text text-anchor="middle" x="734.18" y="-1148.01" font-family="Times,serif" font-size="14.00">Autosys</text>
</g>
<!-- Mechanism&#45;&gt;Autosys -->
<g id="edge24" class="edge">
<title>Mechanism&#45;&gt;Autosys</title>
<path fill="none" stroke="orange" d="M869.07,-1172.38C841.96,-1168.5 806.36,-1163.4 778.53,-1159.42"/>
<polygon fill="orange" stroke="orange" points="774.07,-1163.83 775.48,-1153.93 777.46,-1154.21 776.05,-1164.11 774.07,-1163.83"/>
<polyline fill="none" stroke="orange" points="773.78,-1158.74 778.73,-1159.45"/>
<text text-anchor="middle" x="823.8" y="-1152.6" font-family="Times,serif" font-size="14.00">Orange Tee</text>
</g>
<!-- Service Bus -->
<g id="node29" class="node">
<title>Service Bus</title>
<ellipse fill="none" stroke="black" cx="830.13" cy="-1019.69" rx="55.45" ry="18"/>
<text text-anchor="middle" x="830.13" y="-1014.64" font-family="Times,serif" font-size="14.00">Service Bus</text>
</g>
<!-- Mechanism&#45;&gt;Service Bus -->
<g id="edge25" class="edge">
<title>Mechanism&#45;&gt;Service Bus</title>
<path fill="none" stroke="purple" d="M900.51,-1159.72C886.52,-1131.89 859.98,-1079.08 843.79,-1046.87"/>
<polygon fill="purple" stroke="purple" points="843.77,-1046.82 843.3,-1035.86 841.37,-1042.05 839.43,-1038.18 839.43,-1038.18 839.43,-1038.18 841.37,-1042.05 835.25,-1039.9 843.77,-1046.82"/>
<text text-anchor="middle" x="837.65" y="-1106.49" font-family="Times,serif" font-size="14.00">Purple Crow</text>
</g>
<!-- Batch Updates -->
<g id="node30" class="node">
<title>Batch Updates</title>
<ellipse fill="none" stroke="black" cx="1014.72" cy="-1035.14" rx="65.17" ry="18"/>
<text text-anchor="middle" x="1014.72" y="-1030.09" font-family="Times,serif" font-size="14.00">Batch Updates</text>
</g>
<!-- Mechanism&#45;&gt;Batch Updates -->
<g id="edge26" class="edge">
<title>Mechanism&#45;&gt;Batch Updates</title>
<path fill="none" stroke="brown" d="M923.31,-1159.8C941.51,-1134.99 974.03,-1090.62 994.98,-1062.06"/>
<polygon fill="brown" stroke="brown" points="997.62,-1064.38 1000.71,-1054.25 991.97,-1060.24 997.62,-1064.38"/>
<text text-anchor="middle" x="917.89" y="-1114.13" font-family="Times,serif" font-size="14.00">Brown Normal</text>
</g>
</g>
</svg>
